<mxfile host="app.diagrams.net" agent="Mozilla/5.0 (Windows NT 10.0; Win64; x64) AppleWebKit/537.36 (KHTML, like Gecko) Chrome/136.0.0.0 Safari/537.36" version="27.0.5">
  <diagram name="Page-1" id="2YBvvXClWsGukQMizWep">
    <mxGraphModel dx="823" dy="549" grid="1" gridSize="10" guides="1" tooltips="1" connect="1" arrows="1" fold="1" page="1" pageScale="1" pageWidth="850" pageHeight="1100" math="0" shadow="0">
      <root>
        <mxCell id="0" />
        <mxCell id="1" parent="0" />
        <mxCell id="aM9ryv3xv72pqoxQDRHE-5" value=":Object" style="shape=umlLifeline;perimeter=lifelinePerimeter;whiteSpace=wrap;html=1;container=0;dropTarget=0;collapsible=0;recursiveResize=0;outlineConnect=0;portConstraint=eastwest;newEdgeStyle={&quot;edgeStyle&quot;:&quot;elbowEdgeStyle&quot;,&quot;elbow&quot;:&quot;vertical&quot;,&quot;curved&quot;:0,&quot;rounded&quot;:0};" parent="1" vertex="1">
          <mxGeometry x="560" y="440" width="100" height="300" as="geometry" />
        </mxCell>
        <mxCell id="kN1TvL-AGW_TWXCYKgNe-4" value="A_Customer" style="shape=umlActor;verticalLabelPosition=bottom;verticalAlign=top;html=1;" vertex="1" parent="1">
          <mxGeometry x="50" y="30" width="30" height="60" as="geometry" />
        </mxCell>
        <mxCell id="kN1TvL-AGW_TWXCYKgNe-6" value="" style="html=1;points=[[0,0,0,0,5],[0,1,0,0,-5],[1,0,0,0,5],[1,1,0,0,-5]];perimeter=orthogonalPerimeter;outlineConnect=0;targetShapes=umlLifeline;portConstraint=eastwest;newEdgeStyle={&quot;curved&quot;:0,&quot;rounded&quot;:0};fillColor=#000000;imageWidth=6;" vertex="1" parent="1">
          <mxGeometry x="63" y="110" width="4" height="220" as="geometry" />
        </mxCell>
        <mxCell id="kN1TvL-AGW_TWXCYKgNe-8" value="clickCheckout()" style="html=1;verticalAlign=bottom;startArrow=oval;startFill=1;endArrow=block;startSize=8;curved=0;rounded=0;" edge="1" parent="1">
          <mxGeometry x="-0.0868" width="60" relative="1" as="geometry">
            <mxPoint x="70" y="130" as="sourcePoint" />
            <mxPoint x="179.5000000000001" y="130" as="targetPoint" />
            <mxPoint as="offset" />
          </mxGeometry>
        </mxCell>
        <mxCell id="aM9ryv3xv72pqoxQDRHE-6" value="" style="html=1;points=[];perimeter=orthogonalPerimeter;outlineConnect=0;targetShapes=umlLifeline;portConstraint=eastwest;newEdgeStyle={&quot;edgeStyle&quot;:&quot;elbowEdgeStyle&quot;,&quot;elbow&quot;:&quot;vertical&quot;,&quot;curved&quot;:0,&quot;rounded&quot;:0};" parent="1" vertex="1">
          <mxGeometry x="595" y="590" width="10" height="170" as="geometry" />
        </mxCell>
        <mxCell id="aM9ryv3xv72pqoxQDRHE-10" value="return" style="html=1;verticalAlign=bottom;endArrow=open;dashed=1;endSize=8;edgeStyle=elbowEdgeStyle;elbow=vertical;curved=0;rounded=0;" parent="1" target="aM9ryv3xv72pqoxQDRHE-6" edge="1">
          <mxGeometry relative="1" as="geometry">
            <mxPoint x="505" y="705" as="targetPoint" />
            <Array as="points">
              <mxPoint x="510" y="700" />
            </Array>
            <mxPoint x="420" y="700" as="sourcePoint" />
          </mxGeometry>
        </mxCell>
        <mxCell id="aM9ryv3xv72pqoxQDRHE-9" value="callback" style="html=1;verticalAlign=bottom;endArrow=block;edgeStyle=elbowEdgeStyle;elbow=vertical;curved=0;rounded=0;" parent="1" source="aM9ryv3xv72pqoxQDRHE-6" edge="1">
          <mxGeometry relative="1" as="geometry">
            <mxPoint x="505" y="630" as="sourcePoint" />
            <Array as="points">
              <mxPoint x="520" y="630" />
            </Array>
            <mxPoint x="420" y="630" as="targetPoint" />
          </mxGeometry>
        </mxCell>
        <mxCell id="aM9ryv3xv72pqoxQDRHE-8" value="return" style="html=1;verticalAlign=bottom;endArrow=open;dashed=1;endSize=8;edgeStyle=elbowEdgeStyle;elbow=vertical;curved=0;rounded=0;" parent="1" source="aM9ryv3xv72pqoxQDRHE-6" edge="1">
          <mxGeometry relative="1" as="geometry">
            <mxPoint x="415" y="750" as="targetPoint" />
            <Array as="points">
              <mxPoint x="520" y="750" />
            </Array>
          </mxGeometry>
        </mxCell>
        <mxCell id="kN1TvL-AGW_TWXCYKgNe-25" value="" style="edgeStyle=elbowEdgeStyle;rounded=0;orthogonalLoop=1;jettySize=auto;html=1;elbow=vertical;curved=0;" edge="1" parent="1">
          <mxGeometry relative="1" as="geometry">
            <mxPoint x="179.63043478260863" y="159.99565217391313" as="sourcePoint" />
            <mxPoint x="314.5" y="159.99565217391313" as="targetPoint" />
          </mxGeometry>
        </mxCell>
        <mxCell id="kN1TvL-AGW_TWXCYKgNe-26" value="getItems()" style="edgeLabel;html=1;align=center;verticalAlign=middle;resizable=0;points=[];" vertex="1" connectable="0" parent="kN1TvL-AGW_TWXCYKgNe-25">
          <mxGeometry x="-0.2395" y="4" relative="1" as="geometry">
            <mxPoint x="19" y="-6" as="offset" />
          </mxGeometry>
        </mxCell>
        <mxCell id="kN1TvL-AGW_TWXCYKgNe-13" value="A_Customer:Object" style="shape=umlLifeline;perimeter=lifelinePerimeter;whiteSpace=wrap;html=1;container=0;dropTarget=0;collapsible=0;recursiveResize=0;outlineConnect=0;portConstraint=eastwest;newEdgeStyle={&quot;edgeStyle&quot;:&quot;elbowEdgeStyle&quot;,&quot;elbow&quot;:&quot;vertical&quot;,&quot;curved&quot;:0,&quot;rounded&quot;:0};" vertex="1" parent="1">
          <mxGeometry x="130" y="30" width="100" height="350" as="geometry" />
        </mxCell>
        <mxCell id="kN1TvL-AGW_TWXCYKgNe-14" value="displayOrderSummary()" style="html=1;verticalAlign=bottom;endArrow=block;curved=0;rounded=0;" edge="1" parent="1">
          <mxGeometry x="-0.0133" width="80" relative="1" as="geometry">
            <mxPoint x="175.5000000000001" y="230" as="sourcePoint" />
            <mxPoint x="63" y="230" as="targetPoint" />
            <mxPoint as="offset" />
          </mxGeometry>
        </mxCell>
        <mxCell id="kN1TvL-AGW_TWXCYKgNe-15" value="selectShippingMethod()" style="html=1;verticalAlign=bottom;endArrow=block;curved=0;rounded=0;" edge="1" parent="1" target="kN1TvL-AGW_TWXCYKgNe-13">
          <mxGeometry width="80" relative="1" as="geometry">
            <mxPoint x="63" y="250" as="sourcePoint" />
            <mxPoint x="143" y="250" as="targetPoint" />
          </mxGeometry>
        </mxCell>
        <mxCell id="kN1TvL-AGW_TWXCYKgNe-16" value="selectPaymentMethod()&lt;span style=&quot;color: rgba(0, 0, 0, 0); font-family: monospace; font-size: 0px; text-align: start; background-color: rgb(236, 236, 236);&quot;&gt;%3CmxGraphModel%3E%3Croot%3E%3CmxCell%20id%3D%220%22%2F%3E%3CmxCell%20id%3D%221%22%20parent%3D%220%22%2F%3E%3CmxCell%20id%3D%222%22%20value%3D%22selectShippingMethod()%22%20style%3D%22html%3D1%3BverticalAlign%3Dbottom%3BendArrow%3Dblock%3Bcurved%3D0%3Brounded%3D0%3B%22%20edge%3D%221%22%20parent%3D%221%22%3E%3CmxGeometry%20width%3D%2280%22%20relative%3D%221%22%20as%3D%22geometry%22%3E%3CmxPoint%20x%3D%22293%22%20y%3D%22250%22%20as%3D%22sourcePoint%22%2F%3E%3CmxPoint%20x%3D%22410%22%20y%3D%22250%22%20as%3D%22targetPoint%22%2F%3E%3C%2FmxGeometry%3E%3C%2FmxCell%3E%3C%2Froot%3E%3C%2FmxGraphModel%3E&lt;/span&gt;" style="html=1;verticalAlign=bottom;endArrow=block;curved=0;rounded=0;" edge="1" parent="1">
          <mxGeometry width="80" relative="1" as="geometry">
            <mxPoint x="63" y="270" as="sourcePoint" />
            <mxPoint x="180" y="270" as="targetPoint" />
          </mxGeometry>
        </mxCell>
        <mxCell id="kN1TvL-AGW_TWXCYKgNe-17" value="confirmAndPay()" style="html=1;verticalAlign=bottom;endArrow=block;curved=0;rounded=0;" edge="1" parent="1">
          <mxGeometry width="80" relative="1" as="geometry">
            <mxPoint x="63" y="290" as="sourcePoint" />
            <mxPoint x="180" y="290" as="targetPoint" />
          </mxGeometry>
        </mxCell>
        <mxCell id="kN1TvL-AGW_TWXCYKgNe-18" value="ShoppingCart" style="shape=umlLifeline;perimeter=lifelinePerimeter;whiteSpace=wrap;html=1;container=0;dropTarget=0;collapsible=0;recursiveResize=0;outlineConnect=0;portConstraint=eastwest;newEdgeStyle={&quot;edgeStyle&quot;:&quot;elbowEdgeStyle&quot;,&quot;elbow&quot;:&quot;vertical&quot;,&quot;curved&quot;:0,&quot;rounded&quot;:0};" vertex="1" parent="1">
          <mxGeometry x="265" y="30" width="100" height="340" as="geometry" />
        </mxCell>
        <mxCell id="kN1TvL-AGW_TWXCYKgNe-19" value="Order" style="shape=umlLifeline;perimeter=lifelinePerimeter;whiteSpace=wrap;html=1;container=0;dropTarget=0;collapsible=0;recursiveResize=0;outlineConnect=0;portConstraint=eastwest;newEdgeStyle={&quot;edgeStyle&quot;:&quot;elbowEdgeStyle&quot;,&quot;elbow&quot;:&quot;vertical&quot;,&quot;curved&quot;:0,&quot;rounded&quot;:0};" vertex="1" parent="1">
          <mxGeometry x="375" y="30" width="100" height="350" as="geometry" />
        </mxCell>
        <mxCell id="kN1TvL-AGW_TWXCYKgNe-20" value="Payment" style="shape=umlLifeline;perimeter=lifelinePerimeter;whiteSpace=wrap;html=1;container=0;dropTarget=0;collapsible=0;recursiveResize=0;outlineConnect=0;portConstraint=eastwest;newEdgeStyle={&quot;edgeStyle&quot;:&quot;elbowEdgeStyle&quot;,&quot;elbow&quot;:&quot;vertical&quot;,&quot;curved&quot;:0,&quot;rounded&quot;:0};" vertex="1" parent="1">
          <mxGeometry x="520" y="30" width="100" height="340" as="geometry" />
        </mxCell>
        <mxCell id="kN1TvL-AGW_TWXCYKgNe-23" value="" style="shape=umlLifeline;perimeter=lifelinePerimeter;whiteSpace=wrap;html=1;container=1;dropTarget=0;collapsible=0;recursiveResize=0;outlineConnect=0;portConstraint=eastwest;newEdgeStyle={&quot;curved&quot;:0,&quot;rounded&quot;:0};participant=umlActor;" vertex="1" parent="1">
          <mxGeometry x="680" y="30" width="20" height="330" as="geometry" />
        </mxCell>
        <mxCell id="kN1TvL-AGW_TWXCYKgNe-24" value="PaymentGateway" style="text;html=1;align=center;verticalAlign=middle;resizable=0;points=[];autosize=1;strokeColor=none;fillColor=none;" vertex="1" parent="1">
          <mxGeometry x="630" y="60" width="120" height="30" as="geometry" />
        </mxCell>
        <mxCell id="kN1TvL-AGW_TWXCYKgNe-27" value="" style="edgeStyle=elbowEdgeStyle;rounded=0;orthogonalLoop=1;jettySize=auto;html=1;elbow=vertical;curved=0;" edge="1" parent="1">
          <mxGeometry relative="1" as="geometry">
            <mxPoint x="315.00043478260864" y="179.56565217391312" as="sourcePoint" />
            <mxPoint x="425" y="179.57" as="targetPoint" />
          </mxGeometry>
        </mxCell>
        <mxCell id="kN1TvL-AGW_TWXCYKgNe-28" value="checkout(items)" style="edgeLabel;html=1;align=center;verticalAlign=middle;resizable=0;points=[];" vertex="1" connectable="0" parent="kN1TvL-AGW_TWXCYKgNe-27">
          <mxGeometry x="-0.2395" y="4" relative="1" as="geometry">
            <mxPoint x="19" y="-6" as="offset" />
          </mxGeometry>
        </mxCell>
        <mxCell id="kN1TvL-AGW_TWXCYKgNe-29" value="" style="edgeStyle=elbowEdgeStyle;rounded=0;orthogonalLoop=1;jettySize=auto;html=1;elbow=vertical;curved=0;" edge="1" parent="1" target="kN1TvL-AGW_TWXCYKgNe-13">
          <mxGeometry relative="1" as="geometry">
            <mxPoint x="370" y="210" as="sourcePoint" />
            <mxPoint x="425" y="210.31" as="targetPoint" />
            <Array as="points">
              <mxPoint x="430" y="210" />
            </Array>
          </mxGeometry>
        </mxCell>
        <mxCell id="kN1TvL-AGW_TWXCYKgNe-30" value="orderSummary" style="edgeLabel;html=1;align=center;verticalAlign=middle;resizable=0;points=[];" vertex="1" connectable="0" parent="kN1TvL-AGW_TWXCYKgNe-29">
          <mxGeometry x="-0.2395" y="4" relative="1" as="geometry">
            <mxPoint x="-72" y="-14" as="offset" />
          </mxGeometry>
        </mxCell>
      </root>
    </mxGraphModel>
  </diagram>
</mxfile>
